<svg width="1250" height="1148" viewBox="0 0 1250 1148" fill="none" xmlns="http://www.w3.org/2000/svg">
<path d="M1086.03 79.832C1183.06 145.07 1245.49 255.11 1249.71 361.22C1253.93 466.544 1199.93 567.938 1176.31 691.34C1152.68 815.528 1159.43 960.938 1088.56 1049.76C1018.53 1137.79 871.716 1168.44 751.905 1133.07C632.093 1098.49 540.125 997.88 418.627 925.568C297.971 852.47 147.785 806.882 67.6298 709.418C-11.6819 611.954 -21.8068 462.614 40.6301 350.216C102.223 237.818 236.378 163.148 362.94 106.556C488.657 49.964 606.781 11.45 731.655 2.80402C856.529 -5.84198 988.152 14.594 1086.03 79.832Z" fill="#FA7E61"/>
</svg>
