<svg width="2011" height="1607" viewBox="0 0 2011 1607" fill="none" xmlns="http://www.w3.org/2000/svg">
<path d="M1566.27 108.791C1678.84 201.73 1681.46 433.423 1773.09 652.026C1864.72 871.938 2042.75 1076.14 2004.79 1213.59C1965.52 1352.34 1707.64 1423.03 1506.06 1510.73C1303.16 1597.12 1156.55 1697.92 1016.49 1688.75C875.119 1678.28 742.91 1556.55 577.976 1458.37C414.351 1358.89 219.31 1282.96 110.663 1133.74C0.706734 985.821 -22.8553 764.6 20.3417 543.379C62.2297 323.467 170.877 102.246 346.283 30.2511C521.689 -41.7439 765.163 35.4871 998.165 49.8861C1231.17 64.2851 1453.7 15.8521 1566.27 108.791Z" fill="#F44174"/>
</svg>
