<?xml version="1.0" standalone="no"?>
<!DOCTYPE svg PUBLIC "-//W3C//DTD SVG 20010904//EN"
 "http://www.w3.org/TR/2001/REC-SVG-20010904/DTD/svg10.dtd">
<svg version="1.0" xmlns="http://www.w3.org/2000/svg"
 width="260.000000pt" height="260.000000pt" viewBox="0 0 260.000000 260.000000"
 preserveAspectRatio="xMidYMid meet">
<metadata>
Created by potrace 1.14, written by Peter Selinger 2001-2017
</metadata>
<g transform="translate(0.000000,260.000000) scale(0.100000,-0.100000)"
fill="#000000" stroke="none">
<path d="M1765 2075 c-145 -27 -287 -106 -346 -195 -13 -19 -27 -37 -30 -40
-16 -13 -49 -126 -53 -180 -16 -250 115 -373 504 -473 97 -25 196 -54 220 -65
53 -22 109 -77 111 -106 1 -12 3 -31 4 -43 6 -61 -56 -133 -142 -165 -64 -24
-223 -19 -283 9 -79 37 -137 112 -139 181 -1 22 -2 22 -160 22 l-158 0 4 -42
c21 -222 155 -374 383 -434 107 -28 351 -28 455 0 6 2 24 6 40 11 98 26 221
117 269 199 95 162 70 380 -57 504 -72 70 -218 143 -333 166 -112 23 -243 60
-281 80 -85 43 -119 99 -103 171 13 56 37 85 98 113 101 46 250 36 326 -22 36
-27 76 -91 76 -121 0 -11 12 -15 48 -15 88 -1 227 -1 246 -1 16 1 18 7 12 58
-3 31 -20 87 -38 125 -56 122 -194 224 -348 258 -79 17 -243 20 -325 5z"/>
<path d="M759 2052 c0 -9 -1 -267 -2 -572 -2 -542 -3 -556 -23 -601 -37 -80
-105 -110 -211 -94 -38 5 -56 15 -85 45 -20 22 -39 54 -43 72 -15 74 0 68
-176 68 l-159 0 6 -62 c11 -110 58 -207 134 -275 35 -32 134 -80 200 -97 84
-22 277 -15 357 14 145 51 248 152 294 287 23 68 23 70 24 649 l1 582 -158 0
c-142 1 -158 0 -159 -16z"/>
</g>
</svg>
